# xmcd
#
# Track frame offsets:
#	150
#	16576
#	34246
#	64222
#	78810
#	92802
#	108273
#	125772
#	140813
#	157159
#	176315
#	219312
#	236667
#	250571
#
# Disc length: 3511 seconds
#
# Revision: 0
# Processed by: cddbd v1.5.2PL0 Copyright (c) Steve Scherf et al.
# Submitted via: audiograbber 1.83.01
#
DISCID=b60db50e
DTITLE=divers - The best of disco 70's and 80's
DYEAR=1975
DGENRE=Disco
TTITLE0=THE TRAMMPS - Disco inferno
TTITLE1=SABRINA - Boys
TTITLE2=James Brown - Sexmachine
TTITLE3=SISTER SLEDGE - We are family
TTITLE4=Tina Charles - I love to love
TTITLE5=David Christie - Saddle up
TTITLE6=ODYSSEY - Going back to my roots
TTITLE7=EARTH WIND and FIRE - Boogie wonderland
TTITLE8=Johnny Wakelin - In Zaire
TTITLE9=Jimmy Bo Horne - Dance across the floor
TTITLE10=Bohannon - Stomp
TTITLE11=Billy Ocean - On the run (hold on brother)
TTITLE12=John Travolta - Greased lightnin' 
TTITLE13=Rose Royce - Car wash
EXTD=
EXTT0=
EXTT1=
EXTT2=
EXTT3=
EXTT4=
EXTT5=
EXTT6=
EXTT7=
EXTT8=
EXTT9=
EXTT10=
EXTT11=
EXTT12=
EXTT13=
PLAYORDER=
